<svg xmlns="http://www.w3.org/2000/svg" viewBox="0 0 492.39 332.35"><defs><style>.cls-1,.cls-2{fill:#231f20;}.cls-2,.cls-3{fill-rule:evenodd;}.cls-3{fill:#fff200;}</style></defs><g id="OBJECTS"><path class="cls-1" d="M3.81,416.18,167.42,115.23a5,5,0,0,1,8.79,0l163.57,301h0a116.66,116.66,0,0,1-102.45-60.86L171.71,234.83,106.22,355.29A116.58,116.58,0,0,1,3.81,416.18Z" transform="translate(-3.81 -83.82)"/><path class="cls-2" d="M422,203.47,288.77,280.62s-5.92-48.37,26.45-72.69c26.8-20.13,89.85-53.85,89.85-53.85" transform="translate(-3.81 -83.82)"/><path class="cls-3" d="M184.32,283.64a147.62,147.62,0,0,0,13.76,32,149.57,149.57,0,0,0,8.37,12.92l-53,30.71s-5.8-48.18,26.58-72.47C181.35,285.77,182.8,284.72,184.32,283.64Z" transform="translate(-3.81 -83.82)"/><path class="cls-2" d="M494.42,197.45c10,59.63-22.9,132.78-78.32,164.78a149.19,149.19,0,1,1,54.61-203.81c.65,1.13,6.35,11,6.6,13.25l-58,33.23c-1-2.19-4.71-11.27-5.93-13.4-22.92-39.68-75.67-57.76-115.36-34.84s-56.82,79.58-33.91,119.27,81.75,58.67,121.44,35.76c12.89-7.45,36.61-25.22,47.12-52.19C447.19,222.35,461.12,210.88,494.42,197.45Z" transform="translate(-3.81 -83.82)"/></g></svg>